<mxfile host="app.diagrams.net" modified="2023-04-11T17:30:16.206Z" agent="Mozilla/5.0 (Windows NT 10.0; Win64; x64) AppleWebKit/537.36 (KHTML, like Gecko) Chrome/111.0.0.0 Safari/537.36 OPR/97.0.0.0" etag="XfIYLG-9livQnucaFlxz" version="21.1.5" type="device">
  <diagram name="Страница 1" id="S-rjnaIjhZy1fPDzEmlq">
    <mxGraphModel dx="1050" dy="573" grid="1" gridSize="10" guides="1" tooltips="1" connect="1" arrows="1" fold="1" page="1" pageScale="1" pageWidth="827" pageHeight="1169" math="0" shadow="0">
      <root>
        <mxCell id="0" />
        <mxCell id="1" parent="0" />
        <mxCell id="-82ZN4XTmZmiQGNRKVn5-1" value="Новый пользователь" style="shape=umlActor;verticalLabelPosition=bottom;verticalAlign=top;html=1;outlineConnect=0;" vertex="1" parent="1">
          <mxGeometry x="270" y="200" width="30" height="60" as="geometry" />
        </mxCell>
        <mxCell id="-82ZN4XTmZmiQGNRKVn5-2" value="" style="endArrow=none;dashed=1;html=1;dashPattern=1 3;strokeWidth=2;rounded=0;" edge="1" parent="1">
          <mxGeometry width="50" height="50" relative="1" as="geometry">
            <mxPoint x="280" y="480" as="sourcePoint" />
            <mxPoint x="280" y="280" as="targetPoint" />
          </mxGeometry>
        </mxCell>
        <mxCell id="-82ZN4XTmZmiQGNRKVn5-3" value="Окно регистрации" style="rounded=1;whiteSpace=wrap;html=1;" vertex="1" parent="1">
          <mxGeometry x="400" y="160" width="130" height="30" as="geometry" />
        </mxCell>
        <mxCell id="-82ZN4XTmZmiQGNRKVn5-4" value="" style="rounded=1;whiteSpace=wrap;html=1;" vertex="1" parent="1">
          <mxGeometry x="460" y="230" width="10" height="270" as="geometry" />
        </mxCell>
        <mxCell id="-82ZN4XTmZmiQGNRKVn5-5" value="" style="endArrow=none;dashed=1;html=1;dashPattern=1 3;strokeWidth=2;rounded=0;entryX=0.5;entryY=1;entryDx=0;entryDy=0;exitX=0.5;exitY=0;exitDx=0;exitDy=0;" edge="1" parent="1" source="-82ZN4XTmZmiQGNRKVn5-4" target="-82ZN4XTmZmiQGNRKVn5-3">
          <mxGeometry width="50" height="50" relative="1" as="geometry">
            <mxPoint x="390" y="320" as="sourcePoint" />
            <mxPoint x="440" y="270" as="targetPoint" />
          </mxGeometry>
        </mxCell>
        <mxCell id="-82ZN4XTmZmiQGNRKVn5-6" value="" style="endArrow=none;dashed=1;html=1;dashPattern=1 3;strokeWidth=2;rounded=0;" edge="1" parent="1">
          <mxGeometry width="50" height="50" relative="1" as="geometry">
            <mxPoint x="465" y="560" as="sourcePoint" />
            <mxPoint x="465" y="500" as="targetPoint" />
          </mxGeometry>
        </mxCell>
        <mxCell id="-82ZN4XTmZmiQGNRKVn5-8" value="Валидация данных" style="rounded=1;whiteSpace=wrap;html=1;" vertex="1" parent="1">
          <mxGeometry x="570" y="160" width="130" height="30" as="geometry" />
        </mxCell>
        <mxCell id="-82ZN4XTmZmiQGNRKVn5-9" value="" style="rounded=1;whiteSpace=wrap;html=1;" vertex="1" parent="1">
          <mxGeometry x="630" y="230" width="10" height="270" as="geometry" />
        </mxCell>
        <mxCell id="-82ZN4XTmZmiQGNRKVn5-10" value="" style="endArrow=none;dashed=1;html=1;dashPattern=1 3;strokeWidth=2;rounded=0;entryX=0.5;entryY=1;entryDx=0;entryDy=0;exitX=0.5;exitY=0;exitDx=0;exitDy=0;" edge="1" parent="1" source="-82ZN4XTmZmiQGNRKVn5-9" target="-82ZN4XTmZmiQGNRKVn5-8">
          <mxGeometry width="50" height="50" relative="1" as="geometry">
            <mxPoint x="560" y="320" as="sourcePoint" />
            <mxPoint x="610" y="270" as="targetPoint" />
          </mxGeometry>
        </mxCell>
        <mxCell id="-82ZN4XTmZmiQGNRKVn5-11" value="" style="endArrow=none;dashed=1;html=1;dashPattern=1 3;strokeWidth=2;rounded=0;" edge="1" parent="1">
          <mxGeometry width="50" height="50" relative="1" as="geometry">
            <mxPoint x="635" y="560" as="sourcePoint" />
            <mxPoint x="635" y="500" as="targetPoint" />
          </mxGeometry>
        </mxCell>
        <mxCell id="-82ZN4XTmZmiQGNRKVn5-12" value="" style="endArrow=classic;html=1;rounded=0;entryX=0;entryY=0.333;entryDx=0;entryDy=0;entryPerimeter=0;" edge="1" parent="1" target="-82ZN4XTmZmiQGNRKVn5-4">
          <mxGeometry width="50" height="50" relative="1" as="geometry">
            <mxPoint x="280" y="320" as="sourcePoint" />
            <mxPoint x="420" y="320" as="targetPoint" />
          </mxGeometry>
        </mxCell>
        <mxCell id="-82ZN4XTmZmiQGNRKVn5-13" value="Ввод логина и пароля" style="text;html=1;align=center;verticalAlign=middle;resizable=0;points=[];autosize=1;strokeColor=none;fillColor=none;" vertex="1" parent="1">
          <mxGeometry x="290" y="325" width="150" height="30" as="geometry" />
        </mxCell>
        <mxCell id="-82ZN4XTmZmiQGNRKVn5-14" value="" style="endArrow=classic;html=1;rounded=0;entryX=-0.32;entryY=0.415;entryDx=0;entryDy=0;entryPerimeter=0;" edge="1" parent="1" target="-82ZN4XTmZmiQGNRKVn5-9">
          <mxGeometry width="50" height="50" relative="1" as="geometry">
            <mxPoint x="470" y="342" as="sourcePoint" />
            <mxPoint x="570" y="320" as="targetPoint" />
            <Array as="points" />
          </mxGeometry>
        </mxCell>
        <mxCell id="-82ZN4XTmZmiQGNRKVn5-15" value="Передача данных" style="text;html=1;align=center;verticalAlign=middle;resizable=0;points=[];autosize=1;strokeColor=none;fillColor=none;" vertex="1" parent="1">
          <mxGeometry x="480" y="340" width="120" height="30" as="geometry" />
        </mxCell>
        <mxCell id="-82ZN4XTmZmiQGNRKVn5-16" value="База данных" style="rounded=1;whiteSpace=wrap;html=1;" vertex="1" parent="1">
          <mxGeometry x="780" y="160" width="130" height="30" as="geometry" />
        </mxCell>
        <mxCell id="-82ZN4XTmZmiQGNRKVn5-17" value="" style="rounded=1;whiteSpace=wrap;html=1;" vertex="1" parent="1">
          <mxGeometry x="840" y="300" width="10" height="170" as="geometry" />
        </mxCell>
        <mxCell id="-82ZN4XTmZmiQGNRKVn5-18" value="" style="endArrow=none;dashed=1;html=1;dashPattern=1 3;strokeWidth=2;rounded=0;entryX=0.5;entryY=1;entryDx=0;entryDy=0;exitX=0.5;exitY=0;exitDx=0;exitDy=0;" edge="1" parent="1" source="-82ZN4XTmZmiQGNRKVn5-17" target="-82ZN4XTmZmiQGNRKVn5-16">
          <mxGeometry width="50" height="50" relative="1" as="geometry">
            <mxPoint x="770" y="320" as="sourcePoint" />
            <mxPoint x="820" y="270" as="targetPoint" />
          </mxGeometry>
        </mxCell>
        <mxCell id="-82ZN4XTmZmiQGNRKVn5-19" value="" style="endArrow=none;dashed=1;html=1;dashPattern=1 3;strokeWidth=2;rounded=0;entryX=0.5;entryY=1;entryDx=0;entryDy=0;" edge="1" parent="1" target="-82ZN4XTmZmiQGNRKVn5-17">
          <mxGeometry width="50" height="50" relative="1" as="geometry">
            <mxPoint x="845" y="560" as="sourcePoint" />
            <mxPoint x="845" y="500" as="targetPoint" />
          </mxGeometry>
        </mxCell>
        <mxCell id="-82ZN4XTmZmiQGNRKVn5-20" value="" style="endArrow=classic;html=1;rounded=0;exitX=1.051;exitY=0.445;exitDx=0;exitDy=0;exitPerimeter=0;entryX=1;entryY=0.519;entryDx=0;entryDy=0;entryPerimeter=0;" edge="1" parent="1" source="-82ZN4XTmZmiQGNRKVn5-9" target="-82ZN4XTmZmiQGNRKVn5-9">
          <mxGeometry width="50" height="50" relative="1" as="geometry">
            <mxPoint x="680" y="330" as="sourcePoint" />
            <mxPoint x="730" y="280" as="targetPoint" />
            <Array as="points">
              <mxPoint x="670" y="350" />
              <mxPoint x="670" y="370" />
            </Array>
          </mxGeometry>
        </mxCell>
        <mxCell id="-82ZN4XTmZmiQGNRKVn5-21" value="Валидация" style="text;html=1;align=center;verticalAlign=middle;resizable=0;points=[];autosize=1;strokeColor=none;fillColor=none;" vertex="1" parent="1">
          <mxGeometry x="660" y="340" width="90" height="30" as="geometry" />
        </mxCell>
        <mxCell id="-82ZN4XTmZmiQGNRKVn5-30" value="" style="endArrow=classic;html=1;rounded=0;exitX=1.084;exitY=0.569;exitDx=0;exitDy=0;exitPerimeter=0;entryX=1;entryY=0.63;entryDx=0;entryDy=0;entryPerimeter=0;" edge="1" parent="1" source="-82ZN4XTmZmiQGNRKVn5-9" target="-82ZN4XTmZmiQGNRKVn5-9">
          <mxGeometry width="50" height="50" relative="1" as="geometry">
            <mxPoint x="650" y="420" as="sourcePoint" />
            <mxPoint x="700" y="370" as="targetPoint" />
            <Array as="points">
              <mxPoint x="690" y="384" />
              <mxPoint x="690" y="400" />
              <mxPoint x="670" y="400" />
            </Array>
          </mxGeometry>
        </mxCell>
        <mxCell id="-82ZN4XTmZmiQGNRKVn5-31" value="Проверка кода" style="text;html=1;align=center;verticalAlign=middle;resizable=0;points=[];autosize=1;strokeColor=none;fillColor=none;" vertex="1" parent="1">
          <mxGeometry x="680" y="380" width="110" height="30" as="geometry" />
        </mxCell>
        <mxCell id="-82ZN4XTmZmiQGNRKVn5-32" value="" style="endArrow=classic;html=1;rounded=0;exitX=1.031;exitY=0.73;exitDx=0;exitDy=0;exitPerimeter=0;entryX=0;entryY=0.75;entryDx=0;entryDy=0;" edge="1" parent="1" source="-82ZN4XTmZmiQGNRKVn5-9" target="-82ZN4XTmZmiQGNRKVn5-17">
          <mxGeometry width="50" height="50" relative="1" as="geometry">
            <mxPoint x="670" y="450" as="sourcePoint" />
            <mxPoint x="720" y="400" as="targetPoint" />
          </mxGeometry>
        </mxCell>
        <mxCell id="-82ZN4XTmZmiQGNRKVn5-33" value="Запрос на добавление" style="text;html=1;align=center;verticalAlign=middle;resizable=0;points=[];autosize=1;strokeColor=none;fillColor=none;" vertex="1" parent="1">
          <mxGeometry x="660" y="405" width="150" height="30" as="geometry" />
        </mxCell>
        <mxCell id="-82ZN4XTmZmiQGNRKVn5-34" value="" style="endArrow=classic;html=1;rounded=0;entryX=1.02;entryY=0.834;entryDx=0;entryDy=0;entryPerimeter=0;exitX=-0.112;exitY=0.911;exitDx=0;exitDy=0;exitPerimeter=0;" edge="1" parent="1" source="-82ZN4XTmZmiQGNRKVn5-17" target="-82ZN4XTmZmiQGNRKVn5-9">
          <mxGeometry width="50" height="50" relative="1" as="geometry">
            <mxPoint x="840" y="450" as="sourcePoint" />
            <mxPoint x="790" y="430" as="targetPoint" />
          </mxGeometry>
        </mxCell>
        <mxCell id="-82ZN4XTmZmiQGNRKVn5-35" value="Результат" style="text;html=1;align=center;verticalAlign=middle;resizable=0;points=[];autosize=1;strokeColor=none;fillColor=none;" vertex="1" parent="1">
          <mxGeometry x="700" y="430" width="80" height="30" as="geometry" />
        </mxCell>
        <mxCell id="-82ZN4XTmZmiQGNRKVn5-36" value="Сообщение" style="rounded=1;whiteSpace=wrap;html=1;" vertex="1" parent="1">
          <mxGeometry x="970" y="160" width="130" height="30" as="geometry" />
        </mxCell>
        <mxCell id="-82ZN4XTmZmiQGNRKVn5-37" value="" style="rounded=1;whiteSpace=wrap;html=1;" vertex="1" parent="1">
          <mxGeometry x="1030" y="460" width="10" height="70" as="geometry" />
        </mxCell>
        <mxCell id="-82ZN4XTmZmiQGNRKVn5-38" value="" style="endArrow=none;dashed=1;html=1;dashPattern=1 3;strokeWidth=2;rounded=0;entryX=0.5;entryY=1;entryDx=0;entryDy=0;exitX=0.5;exitY=0;exitDx=0;exitDy=0;" edge="1" parent="1" source="-82ZN4XTmZmiQGNRKVn5-37" target="-82ZN4XTmZmiQGNRKVn5-36">
          <mxGeometry width="50" height="50" relative="1" as="geometry">
            <mxPoint x="960" y="320" as="sourcePoint" />
            <mxPoint x="1010" y="270" as="targetPoint" />
          </mxGeometry>
        </mxCell>
        <mxCell id="-82ZN4XTmZmiQGNRKVn5-39" value="" style="endArrow=none;dashed=1;html=1;dashPattern=1 3;strokeWidth=2;rounded=0;" edge="1" parent="1">
          <mxGeometry width="50" height="50" relative="1" as="geometry">
            <mxPoint x="1035" y="560" as="sourcePoint" />
            <mxPoint x="1034.58" y="530" as="targetPoint" />
          </mxGeometry>
        </mxCell>
        <mxCell id="-82ZN4XTmZmiQGNRKVn5-40" value="" style="endArrow=classic;html=1;rounded=0;exitX=1.036;exitY=0.966;exitDx=0;exitDy=0;exitPerimeter=0;entryX=-0.038;entryY=0.438;entryDx=0;entryDy=0;entryPerimeter=0;" edge="1" parent="1" source="-82ZN4XTmZmiQGNRKVn5-9" target="-82ZN4XTmZmiQGNRKVn5-37">
          <mxGeometry width="50" height="50" relative="1" as="geometry">
            <mxPoint x="780" y="510" as="sourcePoint" />
            <mxPoint x="830" y="460" as="targetPoint" />
          </mxGeometry>
        </mxCell>
        <mxCell id="-82ZN4XTmZmiQGNRKVn5-41" value="Вывод сообщения об ошибке" style="text;html=1;align=center;verticalAlign=middle;resizable=0;points=[];autosize=1;strokeColor=none;fillColor=none;" vertex="1" parent="1">
          <mxGeometry x="725" y="465" width="190" height="30" as="geometry" />
        </mxCell>
      </root>
    </mxGraphModel>
  </diagram>
</mxfile>
